<svg viewBox="0 0 23 23" xmlns="http://www.w3.org/2000/svg">
<path fill-rule="evenodd" clip-rule="evenodd" d="M1.76208 15.346C1.76208 13.8284 3.03244 12.5981 4.5995 12.5981H8.61165C10.1787 12.5981 11.4491 13.8284 11.4491 15.346V19.3224C11.4491 20.84 10.1787 22.0703 8.61165 22.0703H4.5995C3.03244 22.0703 1.76208 20.84 1.76208 19.3224V15.346ZM4.5995 14.2372C3.96718 14.2372 3.45458 14.7336 3.45458 15.346V19.3224C3.45458 19.9347 3.96718 20.4312 4.5995 20.4312H8.61165C9.24398 20.4312 9.75658 19.9347 9.75658 19.3224V15.346C9.75658 14.7336 9.24398 14.2372 8.61165 14.2372H4.5995Z" />
<path fill-rule="evenodd" clip-rule="evenodd" d="M13.0751 3.81817C13.0751 2.30054 14.3454 1.07027 15.9125 1.07027H19.9246C21.4917 1.07027 22.7621 2.30055 22.7621 3.81817V7.79454C22.7621 9.31217 21.4917 10.5424 19.9246 10.5424H15.9125C14.3454 10.5424 13.0751 9.31216 13.0751 7.79454V3.81817ZM15.9125 2.70937C15.2802 2.70937 14.7676 3.2058 14.7676 3.81817V7.79454C14.7676 8.40691 15.2802 8.90334 15.9125 8.90334H19.9246C20.557 8.90334 21.0696 8.40691 21.0696 7.79454V3.81817C21.0696 3.2058 20.557 2.70937 19.9246 2.70937H15.9125Z" />
<path fill-rule="evenodd" clip-rule="evenodd" d="M13.0751 15.346C13.0751 13.8284 14.3454 12.5981 15.9125 12.5981H19.9246C21.4917 12.5981 22.7621 13.8284 22.7621 15.346V19.3224C22.7621 20.84 21.4917 22.0703 19.9246 22.0703H15.9125C14.3454 22.0703 13.0751 20.84 13.0751 19.3224V15.346ZM15.9125 14.2372C15.2802 14.2372 14.7676 14.7336 14.7676 15.346V19.3224C14.7676 19.9347 15.2802 20.4312 15.9125 20.4312H19.9246C20.557 20.4312 21.0696 19.9347 21.0696 19.3224V15.346C21.0696 14.7336 20.557 14.2372 19.9246 14.2372H15.9125Z" />
<path d="M7.09069 1.72681C7.09069 1.24737 6.71367 0.849976 6.23801 0.849976C5.76235 0.849976 5.38533 1.24737 5.38533 1.72681V5.40926L1.70265 5.40926C1.227 5.40926 0.849976 5.80665 0.849976 6.2861C0.849976 6.76554 1.227 7.16293 1.70265 7.16293L5.38533 7.16293V10.9774C5.38533 11.4569 5.76235 11.8542 6.23801 11.8542C6.71367 11.8542 7.09069 11.4569 7.09069 10.9774V7.16293L10.6458 7.16293C11.1215 7.16293 11.4985 6.76554 11.4985 6.2861C11.4985 5.80665 11.1215 5.40926 10.6458 5.40926L7.09069 5.40926V1.72681Z" />
</svg>
