<svg width="20" height="20" viewBox="0 0 20 20" fill="none" xmlns="http://www.w3.org/2000/svg">
<path opacity="0.8" d="M9.18855 2.62332H4.07071C2.3748 2.62332 1 3.99808 1 5.69393V15.9294C1 17.6252 2.3748 19 4.07071 19H14.3064C16.0023 19 17.3771 17.6252 17.3771 15.9294L17.3771 10.8117M6.11784 13.8822L9.84192 13.1319C10.0396 13.092 10.2211 12.9947 10.3637 12.852L18.7004 4.51105C19.1001 4.11114 19.0998 3.46291 18.6998 3.06334L16.9338 1.29938C16.5339 0.89997 15.886 0.900242 15.4864 1.29999L7.14889 9.64185C7.0066 9.78421 6.90944 9.96537 6.86957 10.1627L6.11784 13.8822Z" stroke="#D6DADE" stroke-width="2" stroke-linecap="round" stroke-linejoin="round"/>
</svg>
