<?xml version="1.0" encoding="UTF-8" standalone="no"?>
<!DOCTYPE svg PUBLIC "-//W3C//DTD SVG 1.1//EN" "http://www.w3.org/Graphics/SVG/1.1/DTD/svg11.dtd">
<svg viewBox="0 0 20 20" version="1.1" xmlns="http://www.w3.org/2000/svg" xmlns:xlink="http://www.w3.org/1999/xlink" xml:space="preserve" xmlns:serif="http://www.serif.com/" style="fill-rule:evenodd;clip-rule:evenodd;stroke-linecap:round;stroke-linejoin:round;">
    <g transform="matrix(0.960398,0,0,0.960398,0.396022,0.396016)">
        <path d="M9.189,2.623L4.071,2.623C2.375,2.623 1,3.998 1,5.694L1,15.929C1,17.625 2.375,19 4.071,19L14.306,19C16.002,19 17.377,17.625 17.377,15.929L17.377,10.812M6.118,13.882L9.842,13.132C10.04,13.092 10.221,12.995 10.364,12.852L18.7,4.511C19.1,4.111 19.1,3.463 18.7,3.063L16.934,1.299C16.534,0.9 15.886,0.9 15.486,1.3L7.149,9.642C7.007,9.784 6.909,9.965 6.87,10.163L6.118,13.882Z" style="fill:none;fill-rule:nonzero;stroke:rgb(214,218,222);stroke-opacity:0.8;stroke-width:2px;"/>
    </g>
</svg>
