<svg width="40" height="46" viewBox="0 0 40 46" fill="none" xmlns="http://www.w3.org/2000/svg">
<rect width="40" height="46" rx="20" fill="#20232A"/>
<path opacity="0.7" d="M31.8383 19.6531C31.7759 19.1247 31.3033 18.7461 30.7786 18.8102C30.2558 18.8734 29.8827 19.3534 29.9451 19.8822C30.0434 20.7134 30.0932 21.7537 30.0932 22.9742C30.0932 24.378 30.0274 25.5481 29.8974 26.4522C29.7684 27.3513 29.5727 28.218 29.3175 29.0225C28.6931 30.9499 27.6433 32.405 26.1083 33.4717C24.5802 34.5332 22.6932 35.0714 20.5 35.0714C18.3064 35.0714 16.4196 34.5332 14.8915 33.4717C13.3565 32.4052 12.3069 30.9499 11.6841 29.0284C11.4271 28.218 11.2314 27.3511 11.1022 26.452C10.9724 25.5487 10.9065 24.3785 10.9065 22.9742C10.9065 21.5707 10.9722 20.4102 11.1018 19.5248C11.231 18.643 11.4269 17.7839 11.6837 16.9732C12.3078 15.0158 13.3553 13.5546 14.8861 12.5063C16.4157 11.4593 18.3044 10.9286 20.5 10.9286C22.6952 10.9286 24.5841 11.4593 26.1135 12.5063C27.9064 13.7339 27.5999 15.2514 26.9713 17.2611C26.9149 17.4419 26.8608 17.6153 26.8126 17.7798C26.8108 17.7857 26.8108 17.7918 26.8091 17.7977L23.9658 27.2396L23.9203 27.2398C23.9203 27.2398 22.2897 24.377 21.6825 23.3105L23.0356 20.897C23.3755 20.2905 24.3586 18.2051 22.731 16.8374C21.5448 15.8402 19.5226 15.8664 18.3153 16.8952C17.8994 17.2496 16.6447 18.5863 17.964 20.9028L19.3443 23.3261C18.7395 24.4043 17.1492 27.2396 17.1492 27.2396H17.1033L14.7787 19.674C14.6096 19.1153 14.2954 18.8358 13.8353 18.8358C13.5435 18.8358 13.3135 18.9254 13.1446 19.1035C12.9757 19.2821 12.8915 19.5033 12.8915 19.7671C12.8915 19.9068 12.9147 20.0463 12.9606 20.186L15.8834 29.2185C16.0982 29.8859 16.4818 30.2194 17.0342 30.2194L17.0346 30.2198C17.6178 30.2198 17.798 29.9402 18.2083 29.2189C18.6188 28.4977 20.4895 25.2084 20.4895 25.2084H20.5331C20.5331 25.2084 22.4047 28.4971 22.815 29.2185C23.2253 29.9398 23.4055 30.2194 23.9886 30.2194C24.5256 30.2194 24.9014 29.8859 25.1164 29.2185L28.6104 18.4206L28.606 18.418C28.6182 18.3879 28.6317 18.3586 28.641 18.3267C28.6859 18.1732 28.7363 18.0114 28.7892 17.8428C29.3144 16.1637 30.2918 13.0384 27.1822 10.9089C25.3314 9.64234 23.0829 9 20.5 9C17.9167 9 15.6686 9.64234 13.8174 10.9091C11.9467 12.1902 10.6183 14.0313 9.8685 16.383C9.57958 17.2949 9.35993 18.257 9.21576 19.2422C9.07257 20.2209 9 21.4764 9 22.9742C9 24.471 9.07238 25.7347 9.21537 26.7295C9.35973 27.7339 9.57939 28.7057 9.87044 29.6231C10.6197 31.9353 11.9458 33.7649 13.8121 35.0614C15.6637 36.3478 17.9138 37.0002 20.5 37.0002C23.0858 37.0002 25.3361 36.3478 27.1879 35.0614C29.0542 33.7647 30.3805 31.9349 31.1309 29.6176C31.4204 28.7059 31.6403 27.7341 31.7842 26.7295C31.9274 25.7339 32 24.4705 32 22.9742C32 21.6773 31.9455 20.5599 31.8383 19.6531ZM19.5718 18.4031C19.8218 18.1901 20.2111 18.0817 20.5909 18.0817C20.9364 18.0817 21.2737 18.1714 21.4905 18.3539C21.9055 18.7024 21.6411 19.403 21.3459 19.929L20.5298 21.3851H20.4852L19.6529 19.9233C19.2484 19.2133 19.2212 18.7018 19.5718 18.4031Z" fill="#D6DADE"/>
</svg>
