<svg width="40" height="45" viewBox="0 0 40 45" fill="none" xmlns="http://www.w3.org/2000/svg">
<rect width="40" height="45" rx="20" fill="#2A2D36"/>
<path opacity="0.7" d="M31.8383 19.6525C31.7759 19.1241 31.3033 18.7455 30.7786 18.8096C30.2558 18.8728 29.8827 19.3528 29.9451 19.8816C30.0434 20.7128 30.0932 21.7531 30.0932 22.9736C30.0932 24.3773 30.0274 25.5475 29.8974 26.4516C29.7684 27.3507 29.5727 28.2174 29.3175 29.0219C28.6931 30.9493 27.6433 32.4044 26.1083 33.4711C24.5802 34.5326 22.6932 35.0708 20.5 35.0708C18.3064 35.0708 16.4196 34.5326 14.8915 33.4711C13.3565 32.4046 12.3069 30.9493 11.6841 29.0278C11.4271 28.2174 11.2314 27.3505 11.1022 26.4514C10.9724 25.5481 10.9065 24.3779 10.9065 22.9736C10.9065 21.5701 10.9722 20.4096 11.1018 19.5242C11.231 18.6423 11.4269 17.7833 11.6837 16.9725C12.3078 15.0152 13.3553 13.554 14.8861 12.5057C16.4157 11.4587 18.3044 10.928 20.5 10.928C22.6952 10.928 24.5841 11.4587 26.1135 12.5057C27.9064 13.7333 27.5999 15.2508 26.9713 17.2605C26.9149 17.4413 26.8608 17.6147 26.8126 17.7792C26.8108 17.7851 26.8108 17.7912 26.8091 17.7971L23.9658 27.2389L23.9203 27.2391C23.9203 27.2391 22.2897 24.3764 21.6825 23.3099L23.0356 20.8964C23.3755 20.2899 24.3586 18.2045 22.731 16.8368C21.5448 15.8396 19.5226 15.8658 18.3153 16.8946C17.8994 17.249 16.6447 18.5857 17.964 20.9021L19.3443 23.3255C18.7395 24.4037 17.1492 27.2389 17.1492 27.2389H17.1033L14.7787 19.6734C14.6096 19.1147 14.2954 18.8352 13.8353 18.8352C13.5435 18.8352 13.3135 18.9247 13.1446 19.1028C12.9757 19.2815 12.8915 19.5027 12.8915 19.7664C12.8915 19.9062 12.9147 20.0457 12.9606 20.1854L15.8834 29.2179C16.0982 29.8852 16.4818 30.2188 17.0342 30.2188L17.0346 30.2192C17.6178 30.2192 17.798 29.9396 18.2083 29.2183C18.6188 28.4971 20.4895 25.2078 20.4895 25.2078H20.5331C20.5331 25.2078 22.4047 28.4965 22.815 29.2179C23.2253 29.9392 23.4055 30.2188 23.9886 30.2188C24.5256 30.2188 24.9014 29.8852 25.1164 29.2179L28.6104 18.42L28.606 18.4174C28.6182 18.3873 28.6317 18.358 28.641 18.3261C28.6859 18.1726 28.7363 18.0108 28.7892 17.8422C29.3144 16.1631 30.2918 13.0378 27.1822 10.9083C25.3314 9.64173 23.0829 8.99939 20.5 8.99939C17.9167 8.99939 15.6686 9.64173 13.8174 10.9085C11.9467 12.1896 10.6183 14.0307 9.8685 16.3824C9.57958 17.2943 9.35993 18.2564 9.21576 19.2416C9.07257 20.2203 9 21.4758 9 22.9736C9 24.4704 9.07238 25.7341 9.21537 26.7289C9.35973 27.7333 9.57939 28.7051 9.87044 29.6225C10.6197 31.9347 11.9458 33.7643 13.8121 35.0608C15.6637 36.3472 17.9138 36.9996 20.5 36.9996C23.0858 36.9996 25.3361 36.3472 27.1879 35.0608C29.0542 33.7641 30.3805 31.9343 31.1309 29.617C31.4204 28.7053 31.6403 27.7335 31.7842 26.7289C31.9274 25.7333 32 24.4698 32 22.9736C32 21.6767 31.9455 20.5593 31.8383 19.6525ZM19.5718 18.4025C19.8218 18.1895 20.2111 18.0811 20.5909 18.0811C20.9364 18.0811 21.2737 18.1708 21.4905 18.3533C21.9055 18.7018 21.6411 19.4024 21.3459 19.9284L20.5298 21.3845H20.4852L19.6529 19.9227C19.2484 19.2127 19.2212 18.7012 19.5718 18.4025Z" fill="#D6DADE"/>
</svg>
