<svg width="23" height="28" viewBox="0 0 23 28" fill="none" xmlns="http://www.w3.org/2000/svg">
<path opacity="0.7" d="M22.8383 10.6525C22.7759 10.1241 22.3033 9.74547 21.7786 9.80962C21.2558 9.87279 20.8827 10.3528 20.9451 10.8816C21.0434 11.7128 21.0932 12.7531 21.0932 13.9736C21.0932 15.3773 21.0274 16.5475 20.8974 17.4516C20.7684 18.3507 20.5727 19.2174 20.3175 20.0219C19.6931 21.9493 18.6433 23.4044 17.1083 24.4711C15.5802 25.5326 13.6932 26.0708 11.5 26.0708C9.30638 26.0708 7.41958 25.5326 5.89154 24.4711C4.35649 23.4046 3.30687 21.9493 2.68409 20.0278C2.42708 19.2174 2.23136 18.3505 2.10218 17.4514C1.97241 16.5481 1.90645 15.3779 1.90645 13.9736C1.90645 12.5701 1.97221 11.4096 2.10179 10.5242C2.23097 9.64235 2.42689 8.78334 2.6837 7.97254C3.30784 6.01522 4.35533 4.55401 5.88609 3.50569C7.41569 2.45874 9.30444 1.92798 11.5 1.92798C13.6952 1.92798 15.5841 2.45874 17.1135 3.50569C18.9064 4.73329 18.5999 6.25078 17.9713 8.26045C17.9149 8.44131 17.8608 8.61468 17.8126 8.7792C17.8108 8.78511 17.8108 8.79121 17.8091 8.79711L14.9658 18.2389L14.9203 18.2391C14.9203 18.2391 13.2897 15.3764 12.6825 14.3099L14.0356 11.8964C14.3755 11.2899 15.3586 9.20448 13.731 7.83675C12.5448 6.83959 10.5226 6.86576 9.31533 7.89461C8.89937 8.24904 7.64468 9.58567 8.96397 11.9021L10.3443 14.3255C9.73946 15.4037 8.14917 18.2389 8.14917 18.2389H8.10325L5.7787 10.6734C5.60963 10.1147 5.29542 9.83521 4.8353 9.83521C4.54346 9.83521 4.3135 9.92475 4.14462 10.1028C3.97575 10.2815 3.89151 10.5027 3.89151 10.7664C3.89151 10.9062 3.91466 11.0457 3.96057 11.1854L6.88339 20.2179C7.09817 20.8852 7.48184 21.2188 8.03418 21.2188L8.03457 21.2192C8.61785 21.2192 8.79801 20.9396 9.20833 20.2183C9.61884 19.4971 11.4895 16.2078 11.4895 16.2078H11.5331C11.5331 16.2078 13.4047 19.4965 13.815 20.2179C14.2253 20.9392 14.4055 21.2188 14.9886 21.2188C15.5256 21.2188 15.9014 20.8852 16.1164 20.2179L19.6104 9.41997L19.606 9.41741C19.6182 9.3873 19.6317 9.35798 19.641 9.3261C19.6859 9.1726 19.7363 9.01083 19.7892 8.84218C20.3144 7.16312 21.2918 4.03782 18.1822 1.9083C16.3314 0.641727 14.0829 -0.000610352 11.5 -0.000610352C8.91669 -0.000610352 6.6686 0.641727 4.8174 1.9085C2.94674 3.18963 1.61832 5.03065 0.868497 7.38235C0.579582 8.2943 0.359929 9.25643 0.215763 10.2416C0.0725695 11.2203 0 12.4758 0 13.9736C0 15.4704 0.0723751 16.7341 0.215374 17.7289C0.359734 18.7333 0.579387 19.7051 0.870443 20.6225C1.61968 22.9347 2.94577 24.7643 4.81214 26.0608C6.66373 27.3472 8.91377 27.9996 11.5 27.9996C14.0858 27.9996 16.3361 27.3472 18.1879 26.0608C20.0542 24.7641 21.3805 22.9343 22.1309 20.617C22.4204 19.7053 22.6403 18.7335 22.7842 17.7289C22.9274 16.7333 23 15.4698 23 13.9736C23 12.6767 22.9455 11.5593 22.8383 10.6525ZM10.5718 9.40245C10.8218 9.18952 11.2111 9.08109 11.5909 9.08109C11.9364 9.08109 12.2737 9.17083 12.4905 9.35325C12.9055 9.70178 12.6411 10.4024 12.3459 10.9284L11.5298 12.3845H11.4852L10.6529 10.9227C10.2484 10.2127 10.2212 9.70119 10.5718 9.40245Z" fill="#D6DADE"/>
</svg>
