<svg width="20" height="18" viewBox="0 0 20 18" fill="none" xmlns="http://www.w3.org/2000/svg">
<path d="M2.54722 16.7755C2.42108 16.7755 2.29417 16.749 2.1838 16.6938C1.89751 16.5508 1.82851 16.2703 2.03004 16.0676C4.54943 13.5229 3.5388 11.6715 2.36785 9.52852C1.12728 7.25807 -0.27848 4.68471 3.14775 1.19276C3.34679 0.989431 3.74189 0.9393 4.02897 1.08123C4.31542 1.22317 4.38598 1.50308 4.18601 1.70697C1.14633 4.80585 2.31321 6.94164 3.54832 9.20344C4.74144 11.3877 5.97483 13.6463 3.06596 16.5846C2.94216 16.7091 2.74625 16.7755 2.54722 16.7755Z" fill="#F5533F" stroke="#F5533F" stroke-width="0.5"/>
<path d="M9.7855 16.7751C9.66092 16.7751 9.53479 16.7492 9.42442 16.6947C9.13735 16.5527 9.06679 16.2727 9.26582 16.0689C11.7496 13.5332 10.7405 11.6876 9.5721 9.55068C8.32747 7.27413 6.9169 4.69401 10.3876 1.19072C10.589 0.987957 10.9833 0.938957 11.2696 1.08202C11.556 1.22451 11.6243 1.50499 11.4235 1.70833C8.34246 4.81737 9.5134 6.9587 10.7524 9.22516C11.9424 11.4025 13.1735 13.6538 10.3058 16.5819C10.1828 16.7081 9.98609 16.7751 9.7855 16.7751Z" fill="#F5533F" stroke="#F5533F" stroke-width="0.5"/>
<path d="M16.9608 16.7751C16.8347 16.7751 16.7078 16.7486 16.5976 16.6934C16.3111 16.5505 16.2421 16.2699 16.4437 16.0672C18.9584 13.5275 17.9421 11.679 16.7649 9.53937C15.5147 7.26571 14.0971 4.68836 17.5629 1.19072C17.7645 0.987957 18.1586 0.938957 18.4451 1.08202C18.7306 1.22451 18.7996 1.50499 18.599 1.70833C15.5242 4.81116 16.6998 6.94916 17.9445 9.21274C19.1448 11.3941 20.3855 13.6498 17.4796 16.5843C17.3559 16.7087 17.1599 16.7751 16.9608 16.7751Z" fill="#F5533F" stroke="#F5533F" stroke-width="0.5"/>
</svg>
