<svg width="14" height="14" viewBox="0 0 14 14" fill="none" xmlns="http://www.w3.org/2000/svg">
<g opacity="0.75">
<path d="M7.0317 14.0001C3.58648 14.0001 0.784912 11.1985 0.784912 7.75331C0.784912 5.58366 1.89028 3.60183 3.74104 2.44951C3.93472 2.33016 4.18709 2.38886 4.30839 2.58058C4.42969 2.77231 4.36904 3.02664 4.17536 3.14794C2.56719 4.14766 1.6066 5.86929 1.6066 7.75331C1.6066 10.7446 4.04036 13.1784 7.0317 13.1784C10.023 13.1784 12.4568 10.7446 12.4568 7.75331C12.4568 5.86929 11.4962 4.14766 9.88805 3.14794C9.69436 3.0286 9.63567 2.77427 9.75501 2.58254C9.87435 2.38886 10.1287 2.33016 10.3224 2.44951C12.1731 3.59987 13.2785 5.58366 13.2785 7.75331C13.2785 11.1985 10.4769 14.0001 7.0317 14.0001Z" fill="#D6DADE"/>
<path d="M7.03175 7.26412C6.80481 7.26412 6.62091 7.08022 6.62091 6.85327V0.410844C6.62091 0.183902 6.80481 0 7.03175 0C7.2587 0 7.4426 0.183902 7.4426 0.410844V6.85132C7.4426 7.07826 7.2587 7.26216 7.03175 7.26216V7.26412Z" fill="#D6DADE"/>
</g>
</svg>
