<svg width="23" height="26" viewBox="0 0 23 26" fill="none" xmlns="http://www.w3.org/2000/svg">
<path d="M11.25 25.2131C5.04541 25.2131 0 20.1676 0 13.9631C0 10.0557 1.99068 6.48655 5.32376 4.4113C5.67256 4.19638 6.12708 4.30208 6.34552 4.64737C6.56397 4.99265 6.45475 5.45069 6.10594 5.66913C3.20976 7.46956 1.4798 10.5701 1.4798 13.9631C1.4798 19.3502 5.86282 23.7333 11.25 23.7333C16.6372 23.7333 21.0202 19.3502 21.0202 13.9631C21.0202 10.5701 19.2902 7.46956 16.3941 5.66913C16.0453 5.45421 15.9396 4.99618 16.1545 4.65089C16.3694 4.30208 16.8274 4.19638 17.1762 4.4113C20.5093 6.48302 22.5 10.0557 22.5 13.9631C22.5 20.1676 17.4546 25.2131 11.25 25.2131Z" fill="#F5533F"/>
<path d="M11.2503 13.0821C10.8416 13.0821 10.5104 12.7509 10.5104 12.3422V0.7399C10.5104 0.331193 10.8416 0 11.2503 0C11.659 0 11.9902 0.331193 11.9902 0.7399V12.3387C11.9902 12.7474 11.659 13.0786 11.2503 13.0786V13.0821Z" fill="#F5533F"/>
</svg>
