<svg width="24" height="24" viewBox="0 0 24 24" fill="none" xmlns="http://www.w3.org/2000/svg">
<g opacity="0.55">
<path d="M1 12C1 6.81495 1 4.22126 2.61063 2.61063C4.22126 1 6.81379 1 12 1C17.1851 1 19.7787 1 21.3894 2.61063C23 4.22126 23 6.81379 23 12C23 17.1851 23 19.7787 21.3894 21.3894C19.7787 23 17.1862 23 12 23C6.81495 23 4.22126 23 2.61063 21.3894C1 19.7787 1 17.1862 1 12Z" stroke="#D6DADE" stroke-linecap="round" stroke-linejoin="round"/>
<path d="M13.2744 8.58088H15.2101M15.2101 8.58088H17.1458M15.2101 8.58088V10.5166M15.2101 8.58088V6.6452" stroke="#D6DADE" stroke-linecap="round"/>
<path d="M6 8.46976C6 7.30527 6 6.72364 6.36182 6.36182C6.72364 6 7.30527 6 8.46976 6C9.63426 6 10.2159 6 10.5777 6.36182C10.9395 6.72364 10.9395 7.30527 10.9395 8.46976C10.9395 9.63426 10.9395 10.2159 10.5777 10.5777C10.2159 10.9395 9.63426 10.9395 8.46976 10.9395C7.30527 10.9395 6.72364 10.9395 6.36182 10.5777C6 10.2159 6 9.63426 6 8.46976ZM12.8505 15.3203C12.8505 14.1558 12.8505 13.5742 13.2123 13.2123C13.5742 12.8505 14.1558 12.8505 15.3203 12.8505C16.4848 12.8505 17.0664 12.8505 17.4282 13.2123C17.79 13.5742 17.79 14.1558 17.79 15.3203C17.79 16.4848 17.79 17.0664 17.4282 17.4282C17.0664 17.79 16.4848 17.79 15.3203 17.79C14.1558 17.79 13.5742 17.79 13.2123 17.4282C12.8505 17.0664 12.8505 16.4848 12.8505 15.3203ZM6 15.3203C6 14.1558 6 13.5742 6.36182 13.2123C6.72364 12.8505 7.30527 12.8505 8.46976 12.8505C9.63426 12.8505 10.2159 12.8505 10.5777 13.2123C10.9395 13.5742 10.9395 14.1558 10.9395 15.3203C10.9395 16.4848 10.9395 17.0664 10.5777 17.4282C10.2159 17.79 9.63426 17.79 8.46976 17.79C7.30527 17.79 6.72364 17.79 6.36182 17.4282C6 17.0664 6 16.4848 6 15.3203Z" stroke="#D6DADE"/>
</g>
</svg>
