<svg width="22" height="22" viewBox="0 0 22 22" fill="none" xmlns="http://www.w3.org/2000/svg">
<path opacity="0.55" d="M11 0C16.1851 0 18.779 -0.000280023 20.3896 1.61035C22.0003 3.22098 22 5.81379 22 11C22 16.1851 22.0003 18.779 20.3896 20.3896C18.779 22.0003 16.1862 22 11 22C5.81495 22 3.22098 22.0003 1.61035 20.3896C-0.000280023 18.779 0 16.1862 0 11C0 5.81495 -0.000280023 3.22098 1.61035 1.61035C3.22098 -0.000280023 5.81379 0 11 0ZM7.46973 11.3506C6.90165 11.3506 6.42513 11.3496 6.04785 11.4004C5.65621 11.4531 5.29696 11.5693 5.00781 11.8584C4.71867 12.1476 4.60252 12.5068 4.5498 12.8984C4.49905 13.2757 4.5 13.7522 4.5 14.3203C4.5 14.8884 4.49905 15.3649 4.5498 15.7422C4.60253 16.1338 4.71866 16.4931 5.00781 16.7822C5.29696 17.0714 5.6562 17.1875 6.04785 17.2402C6.42513 17.291 6.90165 17.29 7.46973 17.29C8.03782 17.29 8.51432 17.291 8.8916 17.2402C9.28326 17.1875 9.64248 17.0714 9.93164 16.7822C10.2208 16.4931 10.3369 16.1338 10.3896 15.7422C10.4404 15.3649 10.4395 14.8884 10.4395 14.3203C10.4395 13.7522 10.4404 13.2757 10.3896 12.8984C10.3369 12.5068 10.2208 12.1476 9.93164 11.8584C9.64247 11.5692 9.28327 11.4531 8.8916 11.4004C8.51432 11.3496 8.03782 11.3506 7.46973 11.3506ZM14.3203 11.3506C13.7522 11.3506 13.2757 11.3496 12.8984 11.4004C12.5068 11.4531 12.1476 11.5692 11.8584 11.8584C11.5692 12.1476 11.4531 12.5068 11.4004 12.8984C11.3496 13.2757 11.3506 13.7522 11.3506 14.3203C11.3506 14.8884 11.3496 15.3649 11.4004 15.7422C11.4531 16.1338 11.5693 16.4931 11.8584 16.7822C12.1476 17.0714 12.5068 17.1875 12.8984 17.2402C13.2757 17.291 13.7522 17.29 14.3203 17.29C14.8884 17.29 15.3649 17.291 15.7422 17.2402C16.1338 17.1875 16.4931 17.0714 16.7822 16.7822C17.0714 16.4931 17.1875 16.1338 17.2402 15.7422C17.291 15.3649 17.29 14.8884 17.29 14.3203C17.29 13.7522 17.291 13.2757 17.2402 12.8984C17.1875 12.5068 17.0714 12.1476 16.7822 11.8584C16.4931 11.5693 16.1338 11.4531 15.7422 11.4004C15.3649 11.3496 14.8884 11.3506 14.3203 11.3506ZM7.46973 12.3506C8.06597 12.3506 8.46272 12.3519 8.75781 12.3916C9.03844 12.4294 9.15201 12.4928 9.22461 12.5654C9.29721 12.638 9.36068 12.7516 9.39844 13.0322C9.43811 13.3273 9.43945 13.7241 9.43945 14.3203C9.43945 14.9166 9.43812 15.3133 9.39844 15.6084C9.36076 15.8885 9.29702 16.0016 9.22461 16.0742C9.15201 16.1468 9.03845 16.2113 8.75781 16.249C8.46273 16.2887 8.06597 16.29 7.46973 16.29C6.87346 16.29 6.47673 16.2887 6.18164 16.249C5.90101 16.2113 5.78842 16.1468 5.71582 16.0742C5.64322 16.0016 5.57877 15.889 5.54102 15.6084C5.50134 15.3133 5.5 14.9166 5.5 14.3203C5.5 13.7241 5.50134 13.3273 5.54102 13.0322C5.57877 12.7516 5.64322 12.638 5.71582 12.5654C5.78844 12.493 5.90159 12.4293 6.18164 12.3916C6.47673 12.3519 6.87345 12.3506 7.46973 12.3506ZM14.3203 12.3506C14.9166 12.3506 15.3133 12.3519 15.6084 12.3916C15.8884 12.4293 16.0016 12.493 16.0742 12.5654C16.1468 12.638 16.2113 12.7516 16.249 13.0322C16.2887 13.3273 16.29 13.7241 16.29 14.3203C16.29 14.9166 16.2887 15.3133 16.249 15.6084C16.2113 15.889 16.1468 16.0016 16.0742 16.0742C16.0016 16.1468 15.889 16.2113 15.6084 16.249C15.3133 16.2887 14.9166 16.29 14.3203 16.29C13.7241 16.29 13.3273 16.2887 13.0322 16.249C12.7516 16.2113 12.638 16.1468 12.5654 16.0742C12.493 16.0016 12.4293 15.8884 12.3916 15.6084C12.3519 15.3133 12.3506 14.9166 12.3506 14.3203C12.3506 13.7241 12.3519 13.3273 12.3916 13.0322C12.4294 12.7516 12.4928 12.638 12.5654 12.5654C12.638 12.4928 12.7516 12.4294 13.0322 12.3916C13.3273 12.3519 13.7241 12.3506 14.3203 12.3506ZM7.46973 4.5C6.90165 4.5 6.42513 4.49905 6.04785 4.5498C5.6562 4.60253 5.29696 4.71866 5.00781 5.00781C4.71866 5.29696 4.60253 5.6562 4.5498 6.04785C4.49905 6.42513 4.5 6.90165 4.5 7.46973C4.5 8.03782 4.49905 8.51432 4.5498 8.8916C4.60252 9.28326 4.71867 9.64248 5.00781 9.93164C5.29696 10.2208 5.65621 10.3369 6.04785 10.3896C6.42513 10.4404 6.90165 10.4395 7.46973 10.4395C8.03782 10.4395 8.51432 10.4404 8.8916 10.3896C9.28328 10.3369 9.64247 10.2208 9.93164 9.93164C10.2208 9.64247 10.3369 9.28328 10.3896 8.8916C10.4404 8.51432 10.4395 8.03782 10.4395 7.46973C10.4395 6.90165 10.4404 6.42513 10.3896 6.04785C10.3369 5.65621 10.2208 5.29696 9.93164 5.00781C9.64248 4.71867 9.28326 4.60252 8.8916 4.5498C8.51432 4.49905 8.03782 4.5 7.46973 4.5ZM14.21 5.14551C13.9339 5.14558 13.71 5.36941 13.71 5.64551V7.08105H12.2744C11.9983 7.08106 11.7745 7.30497 11.7744 7.58105C11.7746 7.85703 11.9984 8.08105 12.2744 8.08105H13.71V9.5166C13.7102 9.79253 13.934 10.0165 14.21 10.0166C14.486 10.0166 14.7098 9.79258 14.71 9.5166V8.08105H16.1455C16.4215 8.08105 16.6453 7.85703 16.6455 7.58105C16.6454 7.30497 16.4216 7.08105 16.1455 7.08105H14.71V5.64551C14.71 5.36937 14.4861 5.14551 14.21 5.14551ZM7.46973 5.5C8.06597 5.5 8.46273 5.50135 8.75781 5.54102C9.03844 5.57877 9.15201 5.64322 9.22461 5.71582C9.29702 5.78844 9.36076 5.90159 9.39844 6.18164C9.43812 6.47673 9.43945 6.87345 9.43945 7.46973C9.43945 8.06598 9.43811 8.46272 9.39844 8.75781C9.36068 9.03845 9.29721 9.15201 9.22461 9.22461C9.15201 9.29721 9.03845 9.36068 8.75781 9.39844C8.46272 9.43811 8.06598 9.43945 7.46973 9.43945C6.87345 9.43945 6.47673 9.43812 6.18164 9.39844C5.90159 9.36076 5.78844 9.29702 5.71582 9.22461C5.64322 9.15201 5.57877 9.03844 5.54102 8.75781C5.50135 8.46273 5.5 8.06597 5.5 7.46973C5.5 6.87346 5.50134 6.47673 5.54102 6.18164C5.57877 5.90101 5.64322 5.78842 5.71582 5.71582C5.78842 5.64322 5.90101 5.57877 6.18164 5.54102C6.47673 5.50134 6.87346 5.5 7.46973 5.5Z" fill="#EAECEF"/>
</svg>
