<svg width="24" height="24" viewBox="0 0 24 24" fill="none" xmlns="http://www.w3.org/2000/svg">
<g opacity="0.55">
<path d="M1 12C1 6.81495 1 4.22126 2.61063 2.61063C4.22126 1 6.81379 1 12 1C17.1851 1 19.7787 1 21.3894 2.61063C23 4.22126 23 6.81379 23 12C23 17.1851 23 19.7787 21.3894 21.3894C19.7787 23 17.1862 23 12 23C6.81495 23 4.22126 23 2.61063 21.3894C1 19.7787 1 17.1862 1 12Z" stroke="#D6DADE" stroke-linecap="round" stroke-linejoin="round"/>
<path d="M9.59996 7.71879C9.59996 7.26294 9.41032 6.82576 9.07276 6.50342C8.7352 6.18109 8.27736 6 7.79998 6C7.3226 6 6.86476 6.18109 6.5272 6.50342C6.18964 6.82576 6 7.26294 6 7.71879C6 8.17464 6.18964 8.61182 6.5272 8.93416C6.86476 9.25649 7.3226 9.43758 7.79998 9.43758C8.27736 9.43758 8.7352 9.25649 9.07276 8.93416C9.41032 8.61182 9.59996 8.17464 9.59996 7.71879ZM9.59996 7.71879H17.9999" stroke="#D6DADE" stroke-linecap="round" stroke-linejoin="round"/>
<path d="M14.4 12C14.4 12.4559 14.5897 12.8931 14.9272 13.2154C15.2648 13.5377 15.7226 13.7188 16.2 13.7188C16.6774 13.7188 17.1352 13.5377 17.4728 13.2154C17.8104 12.8931 18 12.4559 18 12C18 11.5442 17.8104 11.107 17.4728 10.7847C17.1352 10.4623 16.6774 10.2812 16.2 10.2812C15.7226 10.2812 15.2648 10.4623 14.9272 10.7847C14.5897 11.107 14.4 11.5442 14.4 12ZM14.4 12L6.00014 12" stroke="#D6DADE" stroke-linecap="round" stroke-linejoin="round"/>
<path d="M9.59996 16.2812C9.59996 15.8254 9.41032 15.3882 9.07276 15.0659C8.7352 14.7435 8.27736 14.5624 7.79998 14.5624C7.3226 14.5624 6.86476 14.7435 6.5272 15.0659C6.18964 15.3882 6 15.8254 6 16.2812C6 16.7371 6.18964 17.1743 6.5272 17.4966C6.86476 17.8189 7.3226 18 7.79998 18C8.27736 18 8.7352 17.8189 9.07276 17.4966C9.41032 17.1743 9.59996 16.7371 9.59996 16.2812ZM9.59996 16.2812H17.9999" stroke="#D6DADE" stroke-linecap="round" stroke-linejoin="round"/>
</g>
</svg>
