<svg width="22" height="22" viewBox="0 0 22 22" fill="none" xmlns="http://www.w3.org/2000/svg">
<path opacity="0.55" d="M11 0C16.1851 0 18.779 -0.000280023 20.3896 1.61035C22.0003 3.22098 22 5.81379 22 11C22 16.1851 22.0003 18.779 20.3896 20.3896C18.779 22.0003 16.1862 22 11 22C5.81495 22 3.22098 22.0003 1.61035 20.3896C-0.000280023 18.779 0 16.1862 0 11C0 5.81495 -0.000280023 3.22098 1.61035 1.61035C3.22098 -0.000280023 5.81379 0 11 0ZM6.7998 13.0625C6.19713 13.0625 5.61451 13.2908 5.18164 13.7041C4.74801 14.1182 4.50001 14.6852 4.5 15.2813C4.50003 15.8773 4.74802 16.4443 5.18164 16.8584C5.61451 17.2717 6.19716 17.5 6.7998 17.5C7.40246 17.5 7.98507 17.2717 8.41797 16.8584C8.72785 16.5625 8.94146 16.188 9.03906 15.7813H17L17.1006 15.7715C17.3284 15.7249 17.4999 15.5229 17.5 15.2813C17.5 15.0396 17.3285 14.8376 17.1006 14.791L17 14.7813H9.03906C8.94147 14.3745 8.72783 14 8.41797 13.7041C7.98507 13.2908 7.40247 13.0625 6.7998 13.0625ZM6.7998 14.0625C7.15184 14.0625 7.48533 14.1965 7.72754 14.4277C7.96882 14.6582 8.0996 14.9658 8.09961 15.2813C8.09958 15.5967 7.96882 15.9043 7.72754 16.1348C7.48533 16.366 7.15181 16.5 6.7998 16.5C6.44787 16.5 6.11423 16.366 5.87207 16.1348C5.63091 15.9043 5.50003 15.5966 5.5 15.2813C5.50001 14.9658 5.6309 14.6582 5.87207 14.4277C6.11424 14.1965 6.44784 14.0625 6.7998 14.0625ZM15.2002 8.78125C14.5975 8.78125 14.0149 9.00953 13.582 9.42285C13.2721 9.71879 13.0585 10.0932 12.9609 10.5H5L4.89941 10.5098C4.67152 10.5563 4.5 10.7583 4.5 11C4.50002 11.2417 4.67152 11.4437 4.89941 11.4902L5 11.5H12.9609C13.0585 11.9068 13.2721 12.2812 13.582 12.5771C14.0149 12.9904 14.5975 13.2187 15.2002 13.2188C15.8029 13.2187 16.3855 12.9905 16.8184 12.5771C17.252 12.163 17.5 11.5961 17.5 11C17.5 10.4039 17.252 9.83698 16.8184 9.42285C16.3855 9.00951 15.8029 8.78129 15.2002 8.78125ZM15.2002 9.78125C15.5522 9.78129 15.8858 9.91524 16.1279 10.1465C16.3691 10.377 16.5 10.6846 16.5 11C16.5 11.3154 16.3691 11.623 16.1279 11.8535C15.8858 12.0848 15.5522 12.2187 15.2002 12.2188C14.8482 12.2187 14.5147 12.0848 14.2725 11.8535C14.0311 11.623 13.9004 11.3155 13.9004 11C13.9004 10.6845 14.0312 10.377 14.2725 10.1465C14.5147 9.9152 14.8482 9.78125 15.2002 9.78125ZM6.7998 4.5C6.19713 4.50004 5.61451 4.72826 5.18164 5.1416C4.74797 5.55573 4.50001 6.12268 4.5 6.71875C4.5 7.31482 4.74799 7.88177 5.18164 8.2959C5.61451 8.70925 6.19713 8.93746 6.7998 8.9375C7.40249 8.9375 7.98507 8.70922 8.41797 8.2959C8.72788 7.99996 8.94147 7.62557 9.03906 7.21875H17L17.1006 7.20898C17.3285 7.1624 17.5 6.96041 17.5 6.71875C17.5 6.4771 17.3285 6.27509 17.1006 6.22852L17 6.21875H9.03906C8.94146 5.81196 8.72786 5.43752 8.41797 5.1416C7.98507 4.72831 7.40247 4.5 6.7998 4.5ZM6.7998 5.5C7.15184 5.5 7.48533 5.63395 7.72754 5.86523C7.96886 6.09574 8.0996 6.40322 8.09961 6.71875C8.09961 7.03427 7.96885 7.34175 7.72754 7.57227C7.48533 7.80355 7.15184 7.9375 6.7998 7.9375C6.44784 7.93746 6.11424 7.80351 5.87207 7.57227C5.63088 7.34177 5.5 7.03419 5.5 6.71875C5.50001 6.4033 5.63086 6.09573 5.87207 5.86523C6.11424 5.63399 6.44784 5.50004 6.7998 5.5Z" fill="#EAECEF"/>
</svg>
