<svg  viewBox="0 0 549 559" fill="none" xmlns="http://www.w3.org/2000/svg">
<path opacity="0.1" d="M464.549 444.103C465.609 442.905 467.439 442.793 468.638 443.852L483.004 456.548C484.203 457.608 484.314 459.439 483.255 460.637C482.196 461.836 480.365 461.95 479.166 460.89L464.8 448.192C463.602 447.132 463.49 445.302 464.549 444.103ZM80.8793 443.909C82.09 443.078 83.7576 443.283 84.7269 444.427C85.7602 445.648 85.6079 447.477 84.3871 448.51L69.7592 460.896C68.5382 461.93 66.71 461.777 65.6761 460.556C64.6433 459.336 64.795 457.509 66.015 456.475L80.6439 444.088L80.8793 443.909ZM472.767 433.801C473.762 432.549 475.585 432.341 476.837 433.336L491.84 445.254C493.093 446.249 493.301 448.072 492.306 449.325C491.311 450.577 489.488 450.785 488.236 449.791L473.233 437.872C471.981 436.876 471.772 435.054 472.767 433.801ZM72.432 433.587C73.7054 432.619 75.5223 432.866 76.4906 434.139C77.4586 435.413 77.2113 437.232 75.9379 438.2L60.6908 449.793C59.4172 450.761 57.5986 450.513 56.6302 449.24C55.6622 447.966 55.9095 446.148 57.183 445.179L72.432 433.587ZM480.443 423.077C481.313 421.856 482.956 421.514 484.232 422.24L484.483 422.398L500.08 433.505L500.312 433.69C501.416 434.658 501.629 436.325 500.759 437.546C499.889 438.768 498.244 439.111 496.968 438.384L496.719 438.226L481.122 427.119L480.89 426.934C479.786 425.966 479.573 424.299 480.443 423.077ZM64.7728 422.665C66.0955 421.765 67.8971 422.108 68.7972 423.43C69.697 424.753 69.3558 426.555 68.0336 427.455L52.2064 438.224C50.8838 439.124 49.081 438.781 48.181 437.459C47.2814 436.136 47.6242 434.333 48.9467 433.433L64.7728 422.665ZM487.553 411.963C488.358 410.697 489.981 410.268 491.293 410.925L491.552 411.073L507.702 421.337L507.943 421.508C509.096 422.417 509.397 424.071 508.592 425.337C507.787 426.602 506.164 427.03 504.852 426.372L504.593 426.227L488.444 415.962C487.094 415.103 486.695 413.313 487.553 411.963ZM57.6908 411.35C59.0589 410.522 60.8392 410.959 61.6683 412.327C62.4975 413.695 62.0606 415.475 60.6927 416.304L44.3314 426.221C42.9633 427.05 41.1831 426.613 40.3539 425.245C39.5249 423.877 39.9615 422.095 41.3295 421.266L57.6908 411.35ZM494.08 400.487C494.866 399.094 496.633 398.6 498.027 399.385L514.684 408.781L514.935 408.94C516.134 409.787 516.52 411.421 515.784 412.727C515.047 414.033 513.449 414.548 512.104 413.961L511.838 413.827L495.18 404.432L494.93 404.274C493.731 403.427 493.344 401.793 494.08 400.487ZM51.4681 399.549C52.8257 398.99 54.4146 399.54 55.1234 400.862C55.8787 402.272 55.3484 404.027 53.9388 404.783L37.0892 413.817L36.8197 413.945C35.4626 414.504 33.8752 413.956 33.1664 412.634C32.4104 411.224 32.941 409.468 34.351 408.712L51.2006 399.677L51.4681 399.549ZM500.005 388.68C500.672 387.337 502.242 386.737 503.617 387.254L503.888 387.373L521.007 395.872L521.266 396.016C522.509 396.799 522.982 398.411 522.315 399.754C521.648 401.098 520.077 401.695 518.703 401.178L518.431 401.062L501.312 392.561L501.053 392.417C499.811 391.634 499.339 390.024 500.005 388.68ZM45.3236 387.674C46.7716 386.994 48.4985 387.617 49.1791 389.065C49.8591 390.513 49.2361 392.237 47.7885 392.918L30.4955 401.046L30.2201 401.16C28.8353 401.646 27.2791 401.016 26.641 399.659C25.9604 398.211 26.5828 396.484 28.0306 395.803L45.3236 387.674ZM505.312 376.574C505.947 375.106 507.652 374.43 509.12 375.065L526.657 382.645C528.124 383.28 528.8 384.985 528.165 386.453C527.531 387.921 525.825 388.598 524.357 387.963L506.821 380.383C505.352 379.749 504.677 378.042 505.312 376.574ZM40.0765 375.378C41.5582 374.775 43.2495 375.486 43.8529 376.967C44.4561 378.449 43.7429 380.141 42.2611 380.744L24.5697 387.944C23.0882 388.547 21.3997 387.835 20.7963 386.354C20.1933 384.872 20.9045 383.182 22.3861 382.579L40.0765 375.378ZM509.986 364.205C510.507 362.799 512.005 362.039 513.426 362.408L513.708 362.497L531.613 369.135L531.884 369.252C533.202 369.898 533.843 371.452 533.322 372.858C532.8 374.265 531.301 375.026 529.879 374.657L529.597 374.569L511.695 367.928L511.421 367.811C510.104 367.164 509.464 365.611 509.986 364.205ZM35.7562 362.736C37.1848 362.398 38.6651 363.19 39.1566 364.607C39.6804 366.119 38.8801 367.77 37.3685 368.294L19.3304 374.546C17.8189 375.07 16.169 374.27 15.6449 372.758C15.1209 371.247 15.9215 369.597 17.433 369.073L35.4711 362.819L35.7562 362.736ZM514.014 351.604C514.461 350.173 515.916 349.335 517.355 349.628L517.643 349.702L535.864 355.382L536.143 355.486C537.493 356.063 538.213 357.58 537.767 359.011C537.32 360.443 535.865 361.281 534.427 360.988L534.14 360.914L515.917 355.233L515.64 355.129C514.289 354.553 513.568 353.036 514.014 351.604ZM31.5218 350.034C33.0587 349.591 34.6632 350.477 35.1068 352.013C35.5501 353.55 34.6644 355.158 33.1273 355.601L14.7914 360.889C13.2541 361.333 11.6469 360.444 11.2035 358.907C10.761 357.37 11.6475 355.765 13.184 355.322L31.5218 350.034ZM517.386 338.808C517.781 337.258 519.357 336.322 520.908 336.716L539.398 341.423C540.948 341.818 541.886 343.395 541.492 344.945C541.097 346.495 539.519 347.433 537.969 347.039L519.48 342.331C517.93 341.936 516.992 340.358 517.386 338.808ZM28.2367 337.055C29.7948 336.694 31.3524 337.664 31.7142 339.222C32.0756 340.781 31.1039 342.339 29.5453 342.701L10.9603 347.008C9.40212 347.369 7.84618 346.4 7.48474 344.841C7.12346 343.283 8.09515 341.726 9.65369 341.365L28.2367 337.055ZM520.093 325.851C520.405 324.282 521.93 323.263 523.499 323.575L542.208 327.296C543.777 327.608 544.797 329.133 544.485 330.702C544.173 332.271 542.646 333.29 541.077 332.978L522.37 329.256C520.801 328.944 519.781 327.42 520.093 325.851ZM25.6283 323.921C27.2037 323.643 28.7063 324.696 28.9847 326.271C29.2626 327.846 28.212 329.348 26.6371 329.627L7.85388 332.946C6.27879 333.224 4.77586 332.171 4.49744 330.596C4.21948 329.021 5.2717 327.517 6.84704 327.239L25.6283 323.921ZM522.128 312.767C522.357 311.184 523.824 310.086 525.408 310.314L544.284 313.037C545.867 313.266 546.965 314.736 546.737 316.319C546.508 317.902 545.039 319 543.455 318.772L524.579 316.049C522.996 315.82 521.9 314.35 522.128 312.767ZM23.9984 310.646C25.4662 310.616 26.7468 311.703 26.9291 313.192C27.123 314.78 25.9934 316.224 24.4056 316.419L5.47986 318.737C3.89198 318.931 2.44511 317.801 2.25037 316.213C2.05592 314.625 3.18683 313.179 4.77478 312.984L23.7025 310.669L23.9984 310.646ZM523.482 299.593C523.626 298.001 525.035 296.826 526.628 296.97L545.619 298.69C547.212 298.834 548.386 300.242 548.242 301.836C548.097 303.429 546.689 304.604 545.096 304.46L526.106 302.741C524.513 302.596 523.338 301.187 523.482 299.593ZM22.7592 297.325C24.2266 297.372 25.4497 298.524 25.5531 300.02C25.6629 301.616 24.4575 302.999 22.8617 303.109L3.84119 304.42L3.54431 304.425C2.07676 304.378 0.854878 303.226 0.751342 301.73C0.641516 300.134 1.84672 298.751 3.44275 298.641L22.4633 297.331L22.7592 297.325ZM527.158 283.582L546.21 284.291C547.809 284.35 549.057 285.694 548.998 287.293C548.939 288.891 547.594 290.14 545.995 290.081L526.943 289.37C525.344 289.31 524.096 287.966 524.156 286.367C524.216 284.768 525.559 283.522 527.158 283.582ZM21.9144 283.943C23.514 283.918 24.8313 285.195 24.8568 286.795C24.8819 288.394 23.6064 289.711 22.0072 289.737L2.94275 290.037C1.34346 290.062 0.0258529 288.786 0.00036513 287.187C-0.0247922 285.587 1.25322 284.27 2.8529 284.245L21.9144 283.943ZM3.0072 269.838L22.0599 270.546C23.6581 270.606 24.9042 271.951 24.8451 273.549C24.7855 275.148 23.4418 276.396 21.8431 276.337L2.7904 275.628C1.19198 275.568 -0.0551732 274.222 0.00427138 272.624C0.0643007 271.025 1.40865 269.778 3.0072 269.838ZM546.058 269.879C547.658 269.854 548.975 271.131 549 272.731C549.025 274.33 547.75 275.648 546.151 275.673L527.086 275.975L526.79 275.963C525.328 275.838 524.168 274.623 524.144 273.124C524.119 271.524 525.396 270.207 526.995 270.181L546.058 269.879ZM0.759154 258.082C0.903641 256.489 2.31184 255.313 3.90466 255.457L22.8949 257.176C24.4881 257.321 25.6628 258.73 25.5189 260.323C25.3746 261.916 23.9658 263.092 22.3724 262.948L3.3822 261.228C1.78945 261.083 0.615241 259.675 0.759154 258.082ZM545.162 255.497C546.758 255.387 548.141 256.593 548.251 258.188C548.361 259.784 547.156 261.167 545.56 261.277L526.537 262.588C524.942 262.697 523.56 261.493 523.45 259.898C523.34 258.302 524.544 256.919 526.14 256.809L545.162 255.497ZM2.26599 243.599C2.49452 242.016 3.96213 240.917 5.54529 241.145L24.4213 243.869L24.7113 243.925C26.1363 244.281 27.0887 245.666 26.8744 247.151C26.6599 248.635 25.3556 249.692 23.889 249.63L23.5931 249.604L4.71814 246.879C3.1352 246.651 2.03762 245.182 2.26599 243.599ZM543.819 241.161C545.286 241.131 546.568 242.216 546.75 243.705C546.945 245.293 545.815 246.738 544.227 246.932L525.3 249.25L525.004 249.27C523.536 249.301 522.254 248.215 522.072 246.726C521.878 245.138 523.007 243.694 524.595 243.5L543.523 241.181L543.819 241.161ZM7.62927 226.897L7.92419 226.94L26.6312 230.661L26.9203 230.733C28.3236 231.164 29.2 232.596 28.9076 234.067C28.615 235.538 27.2574 236.526 25.7963 236.387L25.5013 236.343L6.79431 232.623L6.50525 232.551C5.10167 232.121 4.22544 230.687 4.51794 229.216C4.8105 227.746 6.16801 226.758 7.62927 226.897ZM541.147 226.972C542.722 226.694 544.225 227.747 544.503 229.322C544.781 230.897 543.73 232.399 542.156 232.677L523.372 235.997C521.797 236.275 520.294 235.222 520.016 233.647C519.738 232.072 520.79 230.568 522.366 230.29L541.147 226.972ZM7.50915 214.973C7.90389 213.423 9.48212 212.485 11.0326 212.879L29.5228 217.588L29.806 217.676C31.1844 218.181 31.9843 219.657 31.6146 221.11C31.2442 222.563 29.8351 223.477 28.3832 223.26L28.0931 223.202L9.6029 218.495C8.05265 218.1 7.11486 216.524 7.50915 214.973ZM538.04 212.908C539.599 212.547 541.155 213.518 541.516 215.077C541.877 216.635 540.907 218.192 539.349 218.553L520.764 222.863C519.206 223.224 517.65 222.252 517.288 220.694C516.927 219.136 517.897 217.579 519.455 217.217L538.04 212.908ZM11.2338 200.907C11.6803 199.476 13.1354 198.638 14.5736 198.93L14.8627 199.004L33.0834 204.685C34.6108 205.161 35.4629 206.787 34.9867 208.314C34.54 209.745 33.0852 210.583 31.6468 210.291L31.3597 210.216L13.1371 204.536L12.8597 204.432C11.5092 203.856 10.7873 202.339 11.2338 200.907ZM534.211 199.029C535.748 198.586 537.354 199.473 537.797 201.009C538.24 202.547 537.354 204.153 535.817 204.596L517.481 209.884C515.944 210.328 514.338 209.441 513.894 207.905C513.451 206.368 514.338 204.761 515.874 204.317L534.211 199.029ZM15.6791 187.058C16.2355 185.558 17.9047 184.793 19.4047 185.349L37.306 191.99L37.5795 192.107C38.8972 192.754 39.5365 194.307 39.015 195.713C38.4585 197.213 36.7922 197.978 35.2924 197.421L17.39 190.783C15.8899 190.227 15.1228 188.558 15.6791 187.058ZM529.67 185.37C531.182 184.846 532.834 185.648 533.358 187.16C533.881 188.671 533.08 190.321 531.57 190.845L513.53 197.099C512.018 197.623 510.368 196.821 509.844 195.309C509.321 193.798 510.121 192.149 511.632 191.625L529.67 185.37ZM20.8353 173.465C21.47 171.997 23.1755 171.321 24.6439 171.955L42.1801 179.535C43.6481 180.169 44.3245 181.874 43.6908 183.342C43.0958 184.719 41.5591 185.401 40.1595 184.958L39.8812 184.853L22.3461 177.273L22.0804 177.143C20.7979 176.428 20.2403 174.843 20.8353 173.465ZM524.431 171.972C525.913 171.369 527.603 172.082 528.206 173.564C528.809 175.046 528.096 176.736 526.615 177.339L508.926 184.541C507.444 185.144 505.753 184.431 505.15 182.949C504.547 181.467 505.258 179.776 506.74 179.172L524.431 171.972ZM26.6859 160.164C27.3973 158.731 29.1367 158.145 30.5697 158.856L47.6888 167.355C49.1218 168.066 49.7066 169.805 48.9955 171.238C48.2841 172.671 46.5457 173.257 45.1127 172.546L27.9935 164.046L27.7347 163.902C26.4923 163.12 26.0192 161.507 26.6859 160.164ZM518.507 158.87C519.955 158.19 521.679 158.812 522.36 160.259C523.04 161.707 522.419 163.432 520.972 164.113L503.677 172.244C502.229 172.924 500.504 172.301 499.824 170.853C499.143 169.405 499.764 167.679 501.212 166.999L518.507 158.87ZM33.2172 147.191C34.0031 145.798 35.77 145.304 37.1635 146.089L53.8207 155.486L54.0717 155.644C55.2707 156.491 55.6584 158.125 54.9222 159.431C54.1363 160.825 52.3676 161.317 50.974 160.531L34.3168 151.137C32.9234 150.351 32.4315 148.584 33.2172 147.191ZM511.913 146.099C513.323 145.343 515.08 145.874 515.836 147.284C516.592 148.694 516.061 150.451 514.652 151.207L497.8 160.241L497.533 160.367C496.175 160.926 494.588 160.378 493.879 159.056C493.123 157.646 493.654 155.891 495.064 155.135L511.913 146.099ZM40.4086 134.582C41.2131 133.316 42.8366 132.887 44.1488 133.545L44.4076 133.691L60.557 143.955L60.7982 144.127C61.9517 145.035 62.2523 146.69 61.4476 147.956C60.6431 149.221 59.0194 149.65 57.7074 148.993L57.4486 148.845L41.2992 138.58C39.9495 137.721 39.5507 135.932 40.4086 134.582ZM504.931 133.555C506.257 132.925 507.871 133.389 508.649 134.671C509.478 136.04 509.04 137.822 507.671 138.651L491.312 148.566L491.05 148.708C489.724 149.337 488.11 148.874 487.332 147.591C486.503 146.223 486.942 144.441 488.31 143.612L504.669 133.697L504.931 133.555ZM48.2416 122.372C49.1117 121.15 50.7566 120.805 52.0326 121.532L52.2816 121.692L67.8793 132.799L68.1107 132.984C69.2144 133.952 69.4278 135.618 68.558 136.839C67.6877 138.061 66.0429 138.405 64.767 137.678L64.5179 137.518L48.9203 126.411C47.6178 125.483 47.3139 123.675 48.2416 122.372ZM496.795 121.694C498.118 120.794 499.92 121.136 500.82 122.458C501.72 123.78 501.377 125.583 500.054 126.483L484.228 137.254C482.905 138.153 481.104 137.81 480.203 136.488C479.304 135.165 479.647 133.364 480.969 132.463L496.795 121.694ZM56.6947 110.593C57.6899 109.341 59.5123 109.133 60.765 110.128L75.766 122.046L75.9886 122.241C77.0408 123.266 77.1651 124.942 76.2318 126.117C75.2985 127.291 73.6395 127.547 72.4037 126.754L72.1615 126.583L57.1605 114.663C55.9086 113.667 55.6998 111.846 56.6947 110.593ZM488.312 110.126C489.585 109.157 491.402 109.405 492.37 110.678C493.338 111.952 493.091 113.769 491.818 114.737L476.569 126.33C475.295 127.298 473.478 127.05 472.51 125.777C471.542 124.504 471.79 122.687 473.063 121.718L488.312 110.126ZM65.7455 99.2789C66.8051 98.0809 68.6358 97.9687 69.8343 99.0279L84.1986 111.724C85.3972 112.784 85.5108 114.616 84.4515 115.815C83.4581 116.938 81.7867 117.108 80.5941 116.252L80.3627 116.066L65.9965 103.37C64.7978 102.31 64.686 100.478 65.7455 99.2789ZM479.477 98.8414C480.688 98.0107 482.355 98.2154 483.325 99.36C484.358 100.581 484.206 102.409 482.986 103.443L468.358 115.829C467.137 116.862 465.308 116.712 464.274 115.491C463.24 114.27 463.393 112.442 464.614 111.408L479.242 99.0201L479.477 98.8414ZM75.3685 88.4605C76.4894 87.32 78.3229 87.3041 79.4642 88.4244L93.1537 101.867L93.3549 102.084C94.2933 103.213 94.2417 104.892 93.1908 105.963C92.1399 107.033 90.462 107.115 89.3158 106.197L89.0951 106.001L75.4037 92.5592C74.2621 91.4382 74.2476 89.6021 75.3685 88.4605ZM469.612 88.4137C470.777 87.3174 472.61 87.3726 473.706 88.5377C474.803 89.7028 474.746 91.536 473.581 92.6324L459.614 105.778L459.387 105.97C458.222 106.863 456.547 106.746 455.519 105.654C454.423 104.489 454.479 102.656 455.644 101.559L469.612 88.4137ZM85.5355 78.1686C86.6409 77.1548 88.3207 77.1601 89.4174 78.1363L89.6283 78.3463L102.604 92.4947L102.793 92.7232C103.671 93.9001 103.533 95.5737 102.427 96.5875C101.248 97.6685 99.4156 97.5888 98.3343 96.4098L85.3588 82.2613L85.1703 82.0328C84.2919 80.856 84.4301 79.1825 85.5355 78.1686ZM459.446 78.3307C460.552 77.1748 462.386 77.1339 463.542 78.2398C464.698 79.3459 464.739 81.1805 463.633 82.3365L450.363 96.2047C449.256 97.3601 447.422 97.3995 446.266 96.2936C445.111 95.1876 445.071 93.3546 446.176 92.1988L459.446 78.3307ZM96.2201 68.4273C97.3769 67.4727 99.0558 67.5671 100.1 68.5992L100.299 68.8199L112.527 83.6363C113.545 84.8702 113.37 86.6951 112.136 87.7135C110.979 88.6682 109.302 88.574 108.258 87.5416L108.059 87.3229L95.8295 72.5064L95.6547 72.2691C94.8386 71.048 95.0631 69.3823 96.2201 68.4273ZM448.979 68.5855C450.045 67.5757 451.723 67.518 452.86 68.4967C454.072 69.5409 454.207 71.3696 453.163 72.5816L440.629 87.1324C439.585 88.3444 437.757 88.4818 436.544 87.4381C435.332 86.3939 435.196 84.5634 436.241 83.3512L448.775 68.8004L448.979 68.5855ZM107.395 59.2691C108.68 58.3166 110.495 58.5853 111.448 59.8707L122.892 75.317C123.844 76.6022 123.575 78.4151 122.29 79.3678C121.005 80.3202 119.19 80.0514 118.238 78.7662L106.793 63.3199C105.841 62.0347 106.11 60.2218 107.395 59.2691ZM437.819 59.6236C438.83 58.5601 440.503 58.4131 441.689 59.3307C442.954 60.3102 443.185 62.1301 442.205 63.3951L430.441 78.5934C429.461 79.8578 427.641 80.0889 426.376 79.11C425.111 78.1305 424.88 76.3106 425.86 75.0455L437.624 59.8492L437.819 59.6236ZM119.028 50.7115C120.361 49.828 122.159 50.1939 123.043 51.527L133.675 67.5582L133.826 67.8121C134.509 69.1115 134.11 70.7439 132.86 71.5729C131.61 72.4011 129.953 72.1328 129.022 70.9977L128.844 70.7604L118.215 54.7272C117.331 53.3938 117.694 51.5957 119.028 50.7115ZM426.21 51.2662C427.165 50.1506 428.828 49.917 430.06 50.7721C431.374 51.6843 431.7 53.4899 430.787 54.8043L419.825 70.6041C418.912 71.918 417.107 72.2434 415.792 71.3316C414.478 70.4195 414.152 68.6138 415.064 67.2994L426.03 51.5006L426.21 51.2662ZM131.085 42.7867C132.377 42.0239 134.018 42.3776 134.889 43.5602L135.053 43.8072L144.842 60.3795C145.656 61.757 145.197 63.5336 143.82 64.3473C142.443 65.1603 140.667 64.7043 139.853 63.3277L130.065 46.7525L129.927 46.4908C129.312 45.1576 129.794 43.5497 131.085 42.7867ZM414.185 43.5338C415.08 42.3702 416.729 42.0504 418.004 42.8395C419.364 43.682 419.784 45.4686 418.942 46.8287L408.808 63.1881C407.965 64.5475 406.181 64.9677 404.821 64.1256C403.461 63.2831 403.041 61.4964 403.883 60.1363L414.017 43.777L414.185 43.5338ZM143.536 35.5084C144.954 34.7682 146.704 35.317 147.445 36.734L156.364 53.8053L156.488 54.0748C157.032 55.4379 156.467 57.0179 155.138 57.7125C153.809 58.407 152.187 57.9695 151.379 56.7438L151.23 56.4869L142.311 39.4186C141.57 38.0006 142.119 36.2494 143.536 35.5084ZM401.622 36.7027C402.393 35.3007 404.155 34.7887 405.557 35.5592C406.959 36.3299 407.47 38.0917 406.7 39.4938L397.426 56.3658C396.656 57.7678 394.894 58.2818 393.492 57.5113C392.09 56.7408 391.579 54.9788 392.349 53.5768L401.622 36.7027ZM156.347 28.902C157.801 28.2366 159.521 28.8755 160.187 30.3297L168.211 47.8492C168.877 49.3035 168.238 51.0228 166.784 51.6891C165.329 52.3551 163.61 51.7156 162.944 50.2613L154.919 32.7418C154.253 31.2873 154.893 29.5682 156.347 28.902ZM388.88 30.2936C389.577 28.8534 391.31 28.2502 392.75 28.9469C394.19 29.6437 394.794 31.3769 394.097 32.817L385.706 50.1588L385.565 50.4195C384.795 51.67 383.187 52.1586 381.836 51.5055C380.396 50.8086 379.795 49.0755 380.492 47.6354L388.88 30.2936ZM169.479 22.983C170.873 22.4302 172.441 23.0348 173.118 24.3375L173.24 24.609L180.348 42.5279C180.938 44.015 180.211 45.6986 178.724 46.2887C177.237 46.8784 175.553 46.1523 174.963 44.6656L167.855 26.7438L167.759 26.4635C167.359 25.0511 168.085 23.536 169.479 22.983ZM375.826 24.568C376.447 23.0946 378.144 22.403 379.618 23.023C381.092 23.6441 381.785 25.3436 381.164 26.818L373.681 44.5807C373.06 46.0547 371.362 46.747 369.888 46.1266C368.414 45.5056 367.721 43.8069 368.341 42.3326L375.826 24.568ZM182.9 17.7682C184.415 17.2563 186.06 18.071 186.572 19.5865L192.745 37.859L192.827 38.1451C193.153 39.5762 192.348 41.0508 190.927 41.5309C189.506 42.0106 187.973 41.3259 187.365 39.9898L187.255 39.7145L181.081 21.441C180.57 19.9254 181.384 18.2802 182.9 17.7682ZM362.491 19.5436C363.034 18.0395 364.694 17.2611 366.199 17.8043C367.703 18.348 368.483 20.0078 367.94 21.5123L361.386 39.648L361.271 39.9215C360.635 41.2451 359.087 41.8989 357.676 41.3893C356.171 40.8455 355.393 39.184 355.937 37.6793L362.491 19.5436ZM196.572 13.274C198.016 12.8682 199.511 13.6315 200.049 14.9977L200.144 15.2789L205.365 33.8522C205.798 35.3923 204.9 36.9934 203.36 37.4264C201.916 37.8318 200.42 37.0682 199.882 35.7027L199.787 35.4215L194.567 16.8463L194.501 16.5582C194.248 15.1115 195.127 13.68 196.572 13.274ZM348.915 15.232C349.381 13.7018 350.998 12.8378 352.529 13.3023C354.059 13.7674 354.923 15.3851 354.458 16.9156L348.851 35.3746L348.749 35.6539C348.183 37.0085 346.671 37.7403 345.236 37.3043C343.705 36.8388 342.841 35.2206 343.306 33.69L348.915 15.232ZM210.456 9.50742C212.017 9.1548 213.569 10.1353 213.921 11.6959L218.174 30.5221C218.527 32.0824 217.549 33.634 215.989 33.9869C214.428 34.3395 212.876 33.359 212.524 31.7984L208.269 12.9723C207.917 11.4119 208.896 9.86014 210.456 9.50742ZM335.136 11.6461C335.522 10.0936 337.093 9.14676 338.646 9.53184C340.198 9.91731 341.145 11.4899 340.76 13.0426L336.113 31.7721C335.727 33.3249 334.156 34.2716 332.603 33.8863C331.05 33.5009 330.103 31.9293 330.489 30.3766L335.136 11.6461ZM224.517 6.48496C226.094 6.21356 227.593 7.27084 227.865 8.84727L231.139 27.8736C231.41 29.4503 230.352 30.9478 228.776 31.2193C227.199 31.4906 225.701 30.4327 225.43 28.8561L222.154 9.83067C221.883 8.2544 222.941 6.75668 224.517 6.48496ZM321.191 8.79649C321.495 7.22607 323.015 6.19939 324.585 6.50352C326.156 6.80791 327.183 8.32752 326.879 9.89805L323.205 28.8492C322.901 30.4198 321.381 31.4466 319.81 31.1422C318.24 30.8376 317.213 29.318 317.517 27.7477L321.191 8.79649ZM238.715 4.20957C240.304 4.02019 241.744 5.15453 241.934 6.74278L244.222 25.9166C244.411 27.5051 243.277 28.9458 241.689 29.1354C240.101 29.3245 238.66 28.1913 238.47 26.6031L236.182 7.4293L236.161 7.1334C236.136 5.66566 237.226 4.38738 238.715 4.20957ZM307.118 6.68809C307.341 5.10408 308.806 4.00047 310.39 4.22325C311.974 4.44646 313.078 5.91171 312.855 7.49571L310.165 26.6158C309.942 28.1998 308.477 29.3034 306.893 29.0807C305.309 28.8577 304.205 27.3923 304.428 25.8082L307.118 6.68809ZM253.011 2.692C254.607 2.58492 255.987 3.79059 256.095 5.38633L257.39 24.6559C257.497 26.2521 256.29 27.6344 254.694 27.7418C253.097 27.849 251.717 26.6409 251.61 25.0445L250.314 5.775C250.207 4.17896 251.415 2.7992 253.011 2.692ZM292.953 5.33067C293.094 3.73722 294.5 2.55871 296.093 2.69883C297.687 2.83946 298.866 4.24573 298.725 5.83946L297.027 25.0748C296.886 26.6685 295.481 27.8462 293.887 27.7057C292.294 27.5648 291.116 26.1595 291.256 24.566L292.953 5.33067ZM267.366 1.93125C268.865 1.90835 270.116 3.0292 270.287 4.48692L270.306 4.78282L270.604 24.0943L270.592 24.3902C270.467 25.8531 269.252 27.0132 267.752 27.0367C266.153 27.0613 264.835 25.7828 264.81 24.1832L264.514 4.87364L264.524 4.57578C264.65 3.11331 265.866 1.95431 267.366 1.93125ZM281.739 1.93321C283.337 1.99129 284.589 3.3354 284.531 4.93418L283.828 24.234L283.802 24.5299C283.601 25.9841 282.327 27.0792 280.828 27.025C279.23 26.9668 277.981 25.6227 278.038 24.024L278.741 4.7252L278.765 4.42832C278.966 2.97433 280.24 1.87934 281.739 1.93321Z" fill="#D6DADE"/>
</svg>
