<svg width="22" height="22" viewBox="0 0 22 22" fill="none" xmlns="http://www.w3.org/2000/svg">
<path d="M13.1876 13.1876C11.9794 14.3958 10.0206 14.3958 8.81239 13.1876M13.1876 13.1876C14.3958 11.9794 14.3958 10.0206 13.1876 8.81239M13.1876 13.1876L16.469 16.469M8.81239 13.1876C7.6042 11.9794 7.6042 10.0206 8.81239 8.81239M8.81239 13.1876L5.53097 16.469M8.81239 8.81239C10.0206 7.6042 11.9794 7.6042 13.1876 8.81239M8.81239 8.81239L5.53097 5.53097M13.1876 8.81239L16.469 5.53097M16.8336 16.8336C13.6118 20.0555 8.38819 20.0555 5.16637 16.8336C1.94454 13.6118 1.94454 8.38819 5.16637 5.16637C8.38819 1.94454 13.6118 1.94454 16.8336 5.16637C20.0555 8.38819 20.0555 13.6118 16.8336 16.8336Z" stroke="#101820" stroke-width="1.7" stroke-linecap="round" stroke-linejoin="round"/>
</svg>
