<svg width="22" height="22" viewBox="0 0 22 22" fill="none" xmlns="http://www.w3.org/2000/svg">
<rect width="20" height="20" rx="10" transform="matrix(0 -1 -1 0 21 21)" stroke="#2E3B48" stroke-width="1.7" stroke-miterlimit="10" stroke-linecap="round" stroke-linejoin="round"/>
<rect x="3" y="3" width="16" height="16" rx="8" stroke="#2E3B48"/>
<path d="M14.4508 9.92419C14.4318 9.75435 14.288 9.63265 14.1283 9.65327C13.9692 9.67357 13.8556 9.82785 13.8746 9.99782C13.9045 10.265 13.9197 10.5994 13.9197 10.9917C13.9197 11.4429 13.8996 11.819 13.8601 12.1096C13.8208 12.3986 13.7613 12.6772 13.6836 12.9358C13.4936 13.5553 13.1741 14.023 12.7069 14.3658C12.2418 14.707 11.6675 14.88 11 14.88C10.3324 14.88 9.75813 14.707 9.29308 14.3658C8.82589 14.0231 8.50644 13.5553 8.3169 12.9377C8.23868 12.6772 8.17911 12.3985 8.13979 12.1095C8.1003 11.8192 8.08022 11.4431 8.08022 10.9917C8.08022 10.5405 8.10024 10.1675 8.13967 9.88295C8.17899 9.5995 8.23862 9.32339 8.31678 9.06278C8.50673 8.43364 8.82553 7.96398 9.29142 7.62702C9.75695 7.2905 10.3318 7.1199 11 7.1199C11.6681 7.1199 12.243 7.2905 12.7085 7.62702C13.2541 8.0216 13.1608 8.50936 12.9695 9.15532C12.9524 9.21345 12.9359 9.26918 12.9212 9.32206C12.9207 9.32396 12.9207 9.32592 12.9201 9.32782L12.0548 12.3627L12.041 12.3627C12.041 12.3627 11.5447 11.4426 11.3599 11.0998L11.7717 10.324C11.8752 10.1291 12.1744 9.45876 11.679 9.01913C11.318 8.69862 10.7025 8.70703 10.3351 9.03773C10.2085 9.15165 9.82664 9.58128 10.2282 10.3259L10.6483 11.1048C10.4642 11.4514 9.98018 12.3627 9.98018 12.3627H9.96621L9.25873 9.93089C9.20728 9.75131 9.11165 9.66149 8.97161 9.66149C8.88279 9.66149 8.8128 9.69027 8.76141 9.74752C8.71001 9.80495 8.68437 9.87605 8.68437 9.96081C8.68437 10.0057 8.69142 10.0506 8.70539 10.0955L9.59494 12.9988C9.66031 13.2133 9.77708 13.3205 9.94519 13.3205L9.9453 13.3206C10.1228 13.3206 10.1777 13.2307 10.3025 12.9989C10.4275 12.7671 10.9968 11.7098 10.9968 11.7098H11.0101C11.0101 11.7098 11.5797 12.7669 11.7046 12.9988C11.8295 13.2306 11.8843 13.3205 12.0617 13.3205C12.2252 13.3205 12.3396 13.2133 12.405 12.9988L13.4684 9.52802L13.467 9.5272C13.4708 9.51752 13.4749 9.5081 13.4777 9.49785C13.4914 9.44851 13.5067 9.39651 13.5228 9.3423C13.6826 8.80261 13.9801 7.79806 13.0337 7.11357C12.4704 6.70646 11.7861 6.5 11 6.5C10.2138 6.5 9.52957 6.70646 8.96616 7.11364C8.39683 7.52543 7.99253 8.11718 7.76433 8.87308C7.67639 9.1662 7.60954 9.47546 7.56567 9.79211C7.52209 10.1067 7.5 10.5102 7.5 10.9917C7.5 11.4728 7.52203 11.879 7.56555 12.1987C7.60948 12.5216 7.67634 12.8339 7.76492 13.1288C7.99295 13.872 8.39654 14.4601 8.96457 14.8768C9.52809 15.2903 10.2129 15.5 11 15.5C11.787 15.5 12.4718 15.2903 13.0354 14.8768C13.6035 14.46 14.0071 13.8719 14.2355 13.127C14.3236 12.834 14.3905 12.5216 14.4343 12.1987C14.4779 11.8787 14.5 11.4726 14.5 10.9917C14.5 10.5748 14.4834 10.2157 14.4508 9.92419ZM10.7175 9.52239C10.7936 9.45395 10.9121 9.4191 11.0277 9.4191C11.1328 9.4191 11.2355 9.44794 11.3015 9.50658C11.4278 9.6186 11.3473 9.84379 11.2575 10.0129L11.0091 10.4809H10.9955L10.7422 10.011C10.6191 9.78281 10.6108 9.61841 10.7175 9.52239Z" fill="#2E3B48" stroke="#2E3B48" stroke-width="0.4"/>
</svg>
