<svg width="22" height="22" viewBox="0 0 22 22" fill="none" xmlns="http://www.w3.org/2000/svg">
<path fill-rule="evenodd" clip-rule="evenodd" d="M10.4612 3.83673C6.80262 3.83673 3.83673 6.80262 3.83673 10.4612C3.83673 14.1198 6.80262 17.0857 10.4612 17.0857C12.2646 17.0857 13.8998 16.3651 15.0943 15.1961C15.0961 15.1943 15.0979 15.1926 15.0996 15.1908C16.3253 13.9886 17.0857 12.3137 17.0857 10.4612C17.0857 6.80262 14.1198 3.83673 10.4612 3.83673ZM17.019 15.8084C18.2088 14.3509 18.9224 12.4894 18.9224 10.4612C18.9224 5.78822 15.1342 2 10.4612 2C5.78822 2 2 5.78822 2 10.4612C2 15.1342 5.78822 18.9224 10.4612 18.9224C12.4442 18.9224 14.2678 18.2403 15.7103 17.0979L18.4431 19.7417C18.8076 20.0943 19.389 20.0847 19.7417 19.7202C20.0943 19.3556 20.0847 18.7742 19.7202 18.4216L17.019 15.8084Z" fill="#2E3B48" stroke="#2E3B48" stroke-width="0.2" stroke-linecap="round"/>
</svg>
