<svg width="22" height="22" viewBox="0 0 22 22" fill="none" xmlns="http://www.w3.org/2000/svg">
<path d="M6.28027 8.34668C6.39758 8.58531 6.55381 8.80985 6.75293 9.00781L8.0293 10.2764H5.98242C3.74421 10.2764 1.92964 12.0909 1.92969 14.3291C1.92989 16.5672 3.74438 18.3818 5.98242 18.3818H16.0176C18.2556 18.3818 20.0701 16.5672 20.0703 14.3291C20.0703 12.0909 18.2558 10.2764 16.0176 10.2764H13.8545L15.2471 8.89063C15.413 8.72548 15.5481 8.54124 15.6572 8.34668H16.0176C19.3216 8.34668 22 11.0251 22 14.3291C21.9998 17.633 19.3215 20.3115 16.0176 20.3115H5.98242C2.67857 20.3115 0.000239324 17.6329 0 14.3291C-4.99056e-05 11.0251 2.67838 8.34668 5.98242 8.34668H6.28027ZM16.6445 13.3643C17.1774 13.3643 17.6094 13.7962 17.6094 14.3291C17.6092 14.8618 17.1773 15.2939 16.6445 15.2939H5.05859C4.5258 15.2939 4.09393 14.8619 4.09375 14.3291C4.09375 13.7962 4.52569 13.3643 5.05859 13.3643H16.6445ZM10.9434 1.68848C11.4762 1.68854 11.9082 2.12046 11.9082 2.65332V7.37598L12.8281 6.45996C13.2057 6.0842 13.8165 6.0855 14.1924 6.46289C14.5683 6.84061 14.5672 7.4522 14.1895 7.82813L11.624 10.3809C11.2477 10.7554 10.6392 10.7561 10.2627 10.3818L7.81055 7.94336C7.433 7.56767 7.43121 6.95693 7.80664 6.5791C8.18237 6.20119 8.79396 6.19947 9.17188 6.5752L9.97852 7.37696V2.65332C9.97853 2.12042 10.4105 1.68848 10.9434 1.68848Z" fill="#2E3B48"/>
</svg>
