<svg width="22" height="22" viewBox="0 0 22 22" fill="none" xmlns="http://www.w3.org/2000/svg">
<path d="M8.54785 9.69727C8.54787 9.89662 8.57323 10.0904 8.61719 10.2764H5.98242C3.74421 10.2764 1.92964 12.0909 1.92969 14.3291C1.92988 16.5672 3.74437 18.3818 5.98242 18.3818H16.0176C18.2557 18.3818 20.0701 16.5672 20.0703 14.3291C20.0703 12.0909 18.2558 10.2764 16.0176 10.2764H13.4951C13.5391 10.0904 13.5654 9.89668 13.5654 9.69727V8.34668H16.0176C19.3216 8.34668 22 11.0251 22 14.3291C21.9998 17.633 19.3215 20.3115 16.0176 20.3115H5.98242C2.67856 20.3115 0.000223348 17.6329 0 14.3291C-4.99056e-05 11.0251 2.67838 8.34668 5.98242 8.34668H8.54785V9.69727ZM16.6445 13.3643C17.1774 13.3643 17.6094 13.7962 17.6094 14.3291C17.6092 14.8618 17.1773 15.2939 16.6445 15.2939H5.05859C4.52579 15.2939 4.09391 14.8619 4.09375 14.3291C4.09375 13.7962 4.52569 13.3643 5.05859 13.3643H16.6445ZM10.376 1.96973C10.7523 1.59522 11.3608 1.59447 11.7373 1.96875L14.1895 4.40723C14.567 4.78291 14.5688 5.39366 14.1934 5.77148C13.8176 6.1494 13.206 6.15112 12.8281 5.77539L12.0215 4.97363V9.69727C12.0215 10.2302 11.5895 10.6621 11.0566 10.6621C10.5238 10.6621 10.0918 10.2301 10.0918 9.69727V4.97461L9.17188 5.89062C8.79427 6.26641 8.18356 6.26507 7.80762 5.8877C7.43169 5.50998 7.43283 4.89838 7.81055 4.52246L10.376 1.96973Z" fill="#2E3B48"/>
</svg>
